<svg id="Layer_1" data-name="Layer 1" xmlns="http://www.w3.org/2000/svg" xmlns:xlink="http://www.w3.org/1999/xlink" viewBox="0 0 17.397 12.75">
  <defs>
    <clipPath id="clip-path">
      <rect width="17.397" height="12.75" fill="none"/>
    </clipPath>
  </defs>
  <title>social-mail</title>
  <g clip-path="url(#clip-path)">
    <path d="M16.0279,10.3014c-1.191-1.191-2.123-2.155-3.305-3.338a5.83372,5.83372,0,0,1-.556-.523c-.006-.138.957-.957,1.08-1.08,1.112-1.111,2.242-2.263,3.305-3.338.028-.006.031.013.033.033.119,2.339.065,5.095.065,7.657a2.97593,2.97593,0,0,1-.065,1.015c-.085.09-.484-.353-.557-.426m-4.09,1.669H5.4589c-1.605,0-3.372.246-4.189-.458,1.514-1.617,3.112-3.149,4.68-4.712.349.338.809.776,1.276,1.243.511.512,1.048,1.497,1.964,1.211.47-.147.893-.762,1.275-1.145.168-.168.371-.338.622-.589.145-.145.511-.619.589-.622.069-.003.432.399.59.557.969.969,1.883,1.916,2.847,2.879a6.95366,6.95366,0,0,1,1.079,1.145c-.76.743-2.65.491-4.254.491M.7639,8.9664c-.053-1.651-.068-3.905-.039-5.384,0-.414.013-.811.045-1.184.003-.042.006-.08.01-.114a3.07658,3.07658,0,0,1,.13-.523q2.295,2.253,4.549,4.548c-1.081,1.189-2.281,2.314-3.436,3.469a6.91883,6.91883,0,0,1-1.145,1.079c-.004-.026-.008-.054-.011-.084a15.26944,15.26944,0,0,1-.103-1.807M5.4919.7794h6.479c1.128,0,2.242-.102,3.239,0a1.93752,1.93752,0,0,1,1.048.556c-2.066,2.138-4.224,4.289-6.382,6.447-.201.201-.716.843-.981.85-.298.009-.758-.626-1.014-.883-2.168-2.168-4.444-4.369-6.545-6.578.829-.606,2.56-.392,4.156-.392m11.78,10.046-.033-9.032a2.43531,2.43531,0,0,0-1.897-1.668H2.0879a2.4045,2.4045,0,0,0-1.963,1.963v8.541a2.38871,2.38871,0,0,0,1.963,1.996h13.254a2.3971,2.3971,0,0,0,1.93-1.8" fill="#2a2422"/>
    <path d="M16.0279,10.3014c-1.191-1.191-2.123-2.155-3.305-3.338a5.83372,5.83372,0,0,1-.556-.523c-.006-.138.957-.957,1.08-1.08,1.112-1.111,2.242-2.263,3.305-3.338.028-.006.031.013.033.033.119,2.339.065,5.095.065,7.657a2.97593,2.97593,0,0,1-.065,1.015C16.4999,10.8174,16.1009,10.3744,16.0279,10.3014Zm-4.09,1.669H5.4589c-1.605,0-3.372.246-4.189-.458,1.514-1.617,3.112-3.149,4.68-4.712.349.338.809.776,1.276,1.243.511.512,1.048,1.497,1.964,1.211.47-.147.893-.762,1.275-1.145.168-.168.371-.338.622-.589.145-.145.511-.619.589-.622.069-.003.432.399.59.557.969.969,1.883,1.916,2.847,2.879a6.95366,6.95366,0,0,1,1.079,1.145C15.4319,12.2224,13.5419,11.9704,11.9379,11.9704ZM.7639,8.9664c-.053-1.651-.068-3.905-.039-5.384,0-.414.013-.811.045-1.184.003-.042.006-.08.01-.114a3.07658,3.07658,0,0,1,.13-.523q2.295,2.253,4.549,4.548c-1.081,1.189-2.281,2.314-3.436,3.469a6.91883,6.91883,0,0,1-1.145,1.079c-.004-.026-.008-.054-.011-.084A15.26944,15.26944,0,0,1,.7639,8.9664ZM5.4919.7794h6.479c1.128,0,2.242-.102,3.239,0a1.93752,1.93752,0,0,1,1.048.556c-2.066,2.138-4.224,4.289-6.382,6.447-.201.201-.716.843-.981.85-.298.009-.758-.626-1.014-.883-2.168-2.168-4.444-4.369-6.545-6.578C2.1649.5654,3.8959.7794,5.4919.7794Zm11.78,10.046-.033-9.032a2.43531,2.43531,0,0,0-1.897-1.668H2.0879a2.4045,2.4045,0,0,0-1.963,1.963v8.541a2.38871,2.38871,0,0,0,1.963,1.996h13.254A2.3971,2.3971,0,0,0,17.2719,10.8254Z" fill="none" stroke="#2a2422" stroke-miterlimit="10" stroke-width="0.25"/>
  </g>
</svg>
