<svg xmlns="http://www.w3.org/2000/svg" xmlns:xlink="http://www.w3.org/1999/xlink" width="24" height="98.4"><symbol id="social-fb" viewBox="0 0 9.7 20"><path fill="currentColor" d="M6 7.2V4.8c0-.9.2-1.5 1.4-1.5h2.2L9.7.1S8.7 0 7.3 0C3.9 0 2.5 2.1 2.5 4.3v2.9H0v3.4h2.5V20H6v-9.4h3.5l.2-3.4H6z"/></symbol><use xlink:href="#social-fb" width="9.7" height="20"/><symbol id="social-gp" viewBox="0 0 19.4 16.5"><path fill="currentColor" d="M19.4 4v-.5h-2.9V0h-1.1v3.5h-3.5V4h3.5v3.5h1.1V4h2.9zM9.5 1.1 10.7 0H5.6C3.3 0 1.1 1.7 1.1 3.7c0 2.1 1.6 3.7 3.9 3.7h.5c-.2.3-.3.6-.3 1 0 .6.3 1 .7 1.4H5c-2.8 0-5 1.8-5 3.7 0 1.9 2.4 3 5.2 3 3.2 0 5-1.8 5-3.7 0-1.5-.4-2.4-1.8-3.3-.4-.3-1.3-1.1-1.3-1.6s.2-.8 1-1.5C9 5.8 9.6 5 9.6 3.9c0-1.3-.6-2.6-1.7-2.8h1.6zm-2.6 9.4c1.1.7 1.8 1.2 2 2 0 .2.1.4.1.5 0 1.5-1 2.7-3.7 2.7-2 0-3.4-1.2-3.4-2.7 0-1.5 1.8-2.7 3.7-2.7.4 0 .9.1 1.3.2M5.8 6.9C4.4 6.9 3.2 5.5 3 3.7 2.8 2 3.7.6 5 .7c1.3 0 2.6 1.4 2.8 3.2.2 1.7-.7 3.1-2 3"/></symbol><use xlink:href="#social-gp" y="20" width="19.4" height="16.5"/><symbol id="social-in" viewBox="0 0 20.8 20.9"><g fill="currentColor"><path d="M18.9 14.8c0 2.3-1.9 4.1-4.1 4.1H6c-2.3 0-4.1-1.9-4.1-4.1V6c0-2.3 1.9-4.1 4.1-4.1h8.7c2.3 0 4.1 1.9 4.1 4.1v8.8zM14.8 0H6C2.7 0 0 2.7 0 6v8.8c0 3.3 2.7 6 6 6h8.7c3.3 0 6-2.7 6-6V6c.1-3.3-2.6-6-5.9-6"/><path d="M10.3 14c-1.9 0-3.5-1.6-3.5-3.5S8.4 7 10.3 7s3.5 1.6 3.5 3.5-1.6 3.5-3.5 3.5m0-8.9c-3 0-5.4 2.4-5.4 5.4 0 3 2.4 5.4 5.4 5.4 3 0 5.4-2.4 5.4-5.4 0-3-2.4-5.4-5.4-5.4M16 3.7c-.7 0-1.3.6-1.3 1.3 0 .7.6 1.3 1.3 1.3.7 0 1.3-.6 1.3-1.3-.1-.8-.6-1.3-1.3-1.3"/></g></symbol><use xlink:href="#social-in" y="36.5" width="20.8" height="20.9"/><symbol id="social-li" viewBox="0 0 24 24"><path fill="currentColor" d="M5 3.5C5 4.9 3.9 6 2.5 6S0 4.9 0 3.5 1.1 1 2.5 1 5 2.1 5 3.5zM5 8H0v16h5V8zm8 0H8v16h5v-8.4c0-4.7 6-5.1 6 0V24h5V13.9c0-7.9-8.9-7.6-11-3.7V8z"/></symbol><use xlink:href="#social-li" y="57.4" width="24" height="24"/><symbol id="social-tw" viewBox="0 0 20.8 17"><path fill="currentColor" d="M18.6 2.6C19.3 2 20 1.3 20.3.3c-.8.4-1.7.8-2.7 1-2.9-3.1-8.3-.5-7.5 3.9-4-.3-6.7-2.1-8.7-4.4-.3.5-.5 1-.6 1.6-.2 1.8.9 3.4 1.8 4.1-.7-.1-1.3-.3-1.8-.5.1 2.4 1.5 3.6 3.4 4.3-.8.1-1.2.2-1.8 0 .6 1.7 1.8 2.9 4 3C5 14.6 2.7 15.2.1 15.2c2.1 1.2 4.3 2 7.5 1.9 6.7-.4 11.3-6.1 11.2-12.8.8-.6 1.7-1.4 2-2.2-.6.2-1.4.4-2.2.5"/></symbol><use xlink:href="#social-tw" y="81.4" width="20.8" height="17"/></svg>