<?xml version="1.0" encoding="utf-8"?>
<!-- Generator: Adobe Illustrator 21.0.0, SVG Export Plug-In . SVG Version: 6.00 Build 0)  -->
<svg version="1.1" id="Layer_1" xmlns="http://www.w3.org/2000/svg" xmlns:xlink="http://www.w3.org/1999/xlink" x="0px" y="0px"
	 viewBox="0 0 20.8 17" enable-background="new 0 0 20.8 17" xml:space="preserve">
<g>
	<path fill="currentColor" d="M18.6,2.6C19.3,2,20,1.3,20.3,0.3c-0.8,0.4-1.7,0.8-2.7,1c-2.9-3.1-8.3-0.5-7.5,3.9
		C6.1,4.9,3.4,3.1,1.4,0.8c-0.3,0.5-0.5,1-0.6,1.6C0.6,4.2,1.7,5.8,2.6,6.5C1.9,6.4,1.3,6.2,0.8,6c0.1,2.4,1.5,3.6,3.4,4.3
		c-0.8,0.1-1.2,0.2-1.8,0c0.6,1.7,1.8,2.9,4,3c-1.4,1.3-3.7,1.9-6.3,1.9c2.1,1.2,4.3,2,7.5,1.9c6.7-0.4,11.3-6.1,11.2-12.8
		c0.8-0.6,1.7-1.4,2-2.2C20.2,2.3,19.4,2.5,18.6,2.6"/>
</g>
</svg>
