<?xml version="1.0" encoding="utf-8"?>
<!-- Generator: Adobe Illustrator 21.0.0, SVG Export Plug-In . SVG Version: 6.00 Build 0)  -->
<svg version="1.1" id="Layer_1" xmlns="http://www.w3.org/2000/svg" xmlns:xlink="http://www.w3.org/1999/xlink" x="0px" y="0px"
	 viewBox="0 0 19.4 16.5" enable-background="new 0 0 19.4 16.5" xml:space="preserve">
<g>
	<path fill="currentColor" d="M19.4,4V3.5h-2.9V0h-1.1v3.5h-3.5V4h3.5v3.5h1.1V4H19.4z M9.5,1.1L10.7,0H5.6C3.3,0,1.1,1.7,1.1,3.7
		c0,2.1,1.6,3.7,3.9,3.7c0.2,0,0.3,0,0.5,0c-0.2,0.3-0.3,0.6-0.3,1c0,0.6,0.3,1,0.7,1.4c-0.3,0-0.6,0-0.9,0c-2.8,0-5,1.8-5,3.7
		c0,1.9,2.4,3,5.2,3c3.2,0,5-1.8,5-3.7c0-1.5-0.4-2.4-1.8-3.3C8,9.2,7.1,8.4,7.1,7.9c0-0.5,0.2-0.8,1-1.5C9,5.8,9.6,5,9.6,3.9
		c0-1.3-0.6-2.6-1.7-2.8H9.5z M6.9,10.5c1.1,0.7,1.8,1.2,2,2C8.9,12.7,9,12.9,9,13c0,1.5-1,2.7-3.7,2.7c-2,0-3.4-1.2-3.4-2.7
		c0-1.5,1.8-2.7,3.7-2.7C6,10.3,6.5,10.4,6.9,10.5 M5.8,6.9C4.4,6.9,3.2,5.5,3,3.7c-0.2-1.7,0.7-3.1,2-3c1.3,0,2.6,1.4,2.8,3.2
		C8,5.6,7.1,7,5.8,6.9"/>
</g>
</svg>
