<?xml version="1.0" encoding="utf-8"?>
<!-- Generator: Adobe Illustrator 21.0.0, SVG Export Plug-In . SVG Version: 6.00 Build 0)  -->
<svg version="1.1" id="Layer_1" xmlns="http://www.w3.org/2000/svg" xmlns:xlink="http://www.w3.org/1999/xlink" x="0px" y="0px"
	 viewBox="0 0 20.8 20.9" enable-background="new 0 0 20.8 20.9" xml:space="preserve">
<g>
	<path fill="currentColor" d="M18.9,14.8c0,2.3-1.9,4.1-4.1,4.1H6c-2.3,0-4.1-1.9-4.1-4.1V6c0-2.3,1.9-4.1,4.1-4.1h8.7
		c2.3,0,4.1,1.9,4.1,4.1V14.8z M14.8,0H6C2.7,0,0,2.7,0,6v8.8c0,3.3,2.7,6,6,6h8.7c3.3,0,6-2.7,6-6V6C20.8,2.7,18.1,0,14.8,0"/>
	<path fill="currentColor" d="M10.3,14c-1.9,0-3.5-1.6-3.5-3.5c0-1.9,1.6-3.5,3.5-3.5c1.9,0,3.5,1.6,3.5,3.5C13.8,12.4,12.2,14,10.3,14
		 M10.3,5.1c-3,0-5.4,2.4-5.4,5.4c0,3,2.4,5.4,5.4,5.4c3,0,5.4-2.4,5.4-5.4C15.7,7.5,13.3,5.1,10.3,5.1"/>
	<path fill="currentColor" d="M16,3.7c-0.7,0-1.3,0.6-1.3,1.3c0,0.7,0.6,1.3,1.3,1.3c0.7,0,1.3-0.6,1.3-1.3C17.2,4.2,16.7,3.7,16,3.7"/>
</g>
</svg>
