<?xml version="1.0" standalone="no"?>
<!DOCTYPE svg PUBLIC "-//W3C//DTD SVG 20010904//EN"
 "http://www.w3.org/TR/2001/REC-SVG-20010904/DTD/svg10.dtd">
<svg version="1.0" xmlns="http://www.w3.org/2000/svg"
 width="260.000000pt" height="260.000000pt" viewBox="0 0 260.000000 260.000000"
 preserveAspectRatio="xMidYMid meet">
<metadata>
Created by potrace 1.11, written by Peter Selinger 2001-2013
</metadata>
<g transform="translate(0.000000,260.000000) scale(0.100000,-0.100000)"
fill="#000000" stroke="none">
<path d="M1131 2004 c-30 -8 -81 -29 -115 -47 -58 -30 -174 -134 -209 -187
-15 -24 -16 -19 -16 103 l-1 127 -125 0 -125 0 0 -780 0 -781 123 3 122 3 5
495 c4 315 10 506 16 525 47 129 124 217 242 273 75 36 80 37 195 37 l117 0 0
113 c0 112 0 113 -26 122 -36 14 -140 11 -203 -6z"/>
<path d="M1800 1146 l0 -853 -23 -34 c-29 -43 -90 -62 -169 -54 l-58 6 0 -100
0 -100 56 -7 c85 -10 212 1 275 25 65 25 109 67 141 136 l23 50 3 893 3 892
-126 0 -125 0 0 -854z"/>
</g>
</svg>
